<?xml version="1.0" encoding="UTF-8"?>
<svg id="Camada_2" data-name="Camada 2" xmlns="http://www.w3.org/2000/svg" viewBox="0 0 1105.86 475.98">
  <defs>
    <style>
      .cls-1 {
        fill: #f4f4f4;
      }
    </style>
  </defs>
  <g id="Camada_1-2" data-name="Camada 1">
    <g>
      <g>
        <g>
          <polygon class="cls-1" points="301.48 63.49 244.83 63.49 238.61 69.7 237.99 70.32 233.59 74.72 188.88 119.43 182.67 125.65 125.65 182.67 125.65 112.34 174.5 63.49 198.44 39.56 202.83 35.17 237.99 0 301.48 63.49"/>
          <polygon class="cls-1" points="475.98 237.99 440.83 273.16 436.43 277.55 412.49 301.48 412.49 244.83 293.32 125.65 363.64 125.65 406.28 168.29 412.49 174.5 475.98 237.99"/>
          <polygon class="cls-1" points="182.67 350.33 112.34 350.33 69.7 307.69 0 237.99 35.17 202.83 39.56 198.44 63.49 174.5 63.49 231.16 182.67 350.33"/>
          <polygon class="cls-1" points="350.33 293.32 350.33 363.65 301.49 412.49 277.55 436.43 273.16 440.82 237.99 475.98 174.5 412.49 231.16 412.49 237.37 406.28 237.99 405.66 242.39 401.26 287.1 356.55 293.32 350.33 350.33 293.32"/>
        </g>
        <g>
          <polygon class="cls-1" points="406.28 69.7 406.28 159.49 372.43 125.65 366.22 119.43 197.68 119.43 237.99 79.12 242.39 74.72 247.41 69.7 406.28 69.7"/>
          <polygon class="cls-1" points="159.49 69.7 125.65 103.55 119.43 109.76 119.43 278.31 69.7 228.58 69.7 69.7 159.49 69.7"/>
          <polygon class="cls-1" points="278.31 356.55 237.99 396.86 233.59 401.26 228.58 406.28 69.7 406.28 69.7 316.49 109.76 356.55 278.31 356.55"/>
          <polygon class="cls-1" points="406.28 247.41 406.28 406.28 316.49 406.28 350.33 372.43 356.55 366.22 356.55 197.68 406.28 247.41"/>
        </g>
      </g>
      <g>
        <g>
          <path class="cls-1" d="M635.42,66.51v19.44h-27.76v66.76h-22.13v-66.76h-27.76v-19.44h77.64Z"/>
          <path class="cls-1" d="M645.21,66.51h68.59v19.44h-46.22v14.43h40.1v18.34h-40.1v14.55h46.22v19.44h-68.59v-86.2Z"/>
          <path class="cls-1" d="M720.67,109.55c0-25.43,17.49-44.75,45.73-44.75,24.7,0,41.08,13.33,43.65,34.97h-22.86c-1.83-9.29-9.78-14.79-20.66-14.79-13.33,0-22.86,7.58-22.86,24.58s9.54,24.7,22.86,24.7c10.88,0,18.83-5.62,20.66-14.92h22.86c-2.57,21.76-18.95,35.09-43.65,35.09-28.24,0-45.73-19.32-45.73-44.87Z"/>
          <path class="cls-1" d="M842.34,66.51v34.6h37.78v-34.6h22.38v86.2h-22.38v-32.03h-37.78v32.03h-22.25v-86.2h22.25Z"/>
          <path class="cls-1" d="M916.45,66.51h41.94l24.21,79.11v-79.11h22.25v86.2h-41.94l-24.21-79.11v79.11h-22.25v-86.2Z"/>
          <path class="cls-1" d="M1060.75,64.8c28,0,45.12,19.32,45.12,44.75s-17.12,44.87-45.12,44.87-45.36-19.32-45.36-44.87,17.24-44.75,45.36-44.75ZM1060.75,134.25c14.92,0,22.25-9.05,22.25-24.7s-7.46-24.58-22.25-24.58-22.37,9.05-22.37,24.58,7.46,24.7,22.37,24.7Z"/>
          <path class="cls-1" d="M561.69,264.1v-75.07h22.25v66.64h41.45v19.56h-52.33c-7.21,0-11.37-3.79-11.37-11.13Z"/>
          <path class="cls-1" d="M672.11,187.32c28,0,45.12,19.32,45.12,44.75s-17.12,44.87-45.12,44.87-45.36-19.32-45.36-44.87,17.24-44.75,45.36-44.75ZM672.11,256.77c14.92,0,22.25-9.05,22.25-24.7s-7.46-24.58-22.25-24.58-22.37,9.05-22.37,24.58,7.46,24.7,22.37,24.7Z"/>
          <path class="cls-1" d="M726.17,232.8c0-28.12,17.61-45.48,44.51-45.48,22.86,0,40.59,13.08,43.53,32.52h-22.86c-1.47-8.07-9.54-13.33-19.44-13.33-14.31,0-22.74,9.66-22.74,25.92,0,15.28,7.34,24.94,23.96,24.94,12.72,0,20.79-5.5,21.64-13.94h-20.79v-17h31.67c7.21,0,11.62,4.16,11.62,11.62v37.17h-22.13v-13.08c-3.42,6.6-11.13,14.67-27.75,14.67-25.43,0-41.21-17.49-41.21-44.02Z"/>
          <path class="cls-1" d="M890.15,189.03v19.44h-19.69v47.2h19.69v19.56h-61.5v-19.56h19.69v-47.2h-19.69v-19.44h61.5Z"/>
          <path class="cls-1" d="M903.12,189.03h68.59v19.44h-46.22v14.43h40.1v18.34h-40.1v14.55h46.22v19.44h-68.59v-86.2Z"/>
          <path class="cls-1" d="M1022.84,276.94c-30.44,0-43.28-12.96-43.28-35.34h22.99c0,12.23,4.77,16.75,20.79,16.75,10.88,0,15.53-2.2,15.53-7.58,0-3.06-2.44-5.38-7.34-6.6l-28.86-7.58c-14.92-4.03-19.56-12.71-19.56-23.6,0-16.75,12.47-25.68,35.09-25.68,26.9,0,40.23,12.72,40.23,31.42h-22.86c0-9.29-5.26-13.2-17-13.2-8.19,0-12.47,2.08-12.47,6.97,0,2.45,1.35,4.52,6.73,5.99l28,6.97c14.31,3.55,20.91,11.74,20.91,24.33,0,16.39-11.25,27.14-38.88,27.14Z"/>
        </g>
        <g>
          <path class="cls-1" d="M568.53,318.06v66.24h-10.75v-80.65h14.84l24.62,45.38,23.98-45.38h14.73v80.65h-11.83v-66.24l-23.76,45.27h-8.07l-23.76-45.27Z"/>
          <path class="cls-1" d="M672.41,357.31c0-15.38,9.36-27.85,26.56-27.85s24.62,10.11,24.62,23.66c0,3.33-.43,5.81-.43,5.81h-40c.54,10.54,6.24,17.21,17.1,17.21,12.26,0,15.27-6.56,15.27-6.56h6.99v6.99s-5.38,8.82-22.26,8.82c-18.39,0-27.85-11.61-27.85-28.06ZM713.05,350.86c0-6.99-4.52-12.26-13.98-12.26s-13.87,5.16-15.38,12.26h29.36Z"/>
          <path class="cls-1" d="M757.89,330.53h9.68l.75,7.1c2.9-4.84,7.85-8.17,15.27-8.17,7.85,0,12.26,4.09,13.33,8.5v6.99h-6.99c-.11,0-1.29-6.45-9.68-6.45-7.74,0-11.61,6.24-11.61,14.62v31.18h-10.75v-53.77Z"/>
          <path class="cls-1" d="M822.95,357.31c0-15.38,10.11-27.96,27.31-27.96s20.54,9.89,20.54,9.89v6.99h-6.99s-2.15-7.74-13.55-7.74-16.56,8.5-16.56,18.82,5.27,18.92,16.56,18.92c11.94,0,13.66-7.74,13.66-7.74h6.99v6.99s-3.87,9.89-20.65,9.89c-18.28,0-27.31-12.69-27.31-28.06Z"/>
          <path class="cls-1" d="M904.57,362.68v-32.15h10.75v31.51c0,8.5,3.44,14.3,12.15,14.3,10.32,0,13.66-7.31,13.66-14.19v-31.62h10.75v53.77h-9.68l-.75-7.21c-2.69,3.66-7.85,8.28-16.45,8.28-14.84,0-20.43-10.21-20.43-22.69Z"/>
          <path class="cls-1" d="M989.3,330.53h9.68l.75,7.1c2.9-4.84,7.85-8.17,15.27-8.17,7.85,0,12.26,4.09,13.33,8.5v6.99h-6.99c-.11,0-1.29-6.45-9.68-6.45-7.74,0-11.61,6.24-11.61,14.62v31.18h-10.75v-53.77Z"/>
          <path class="cls-1" d="M1058.23,411.18v-7.53l16.24-27.96-20.65-37.63v-7.53h7.53l18.93,35.06,18.6-35.06h6.99v6.99l-40.11,73.66h-7.53Z"/>
        </g>
      </g>
    </g>
  </g>
</svg>